<svg xmlns="http://www.w3.org/2000/svg" xmlns:xlink="http://www.w3.org/1999/xlink" width="98" height="98" viewBox="0 0 98 98"><defs><filter id="Ellipse_18" width="98" height="98" x="0" y="0" filterUnits="userSpaceOnUse"><feOffset dy="3" input="SourceAlpha"/><feGaussianBlur result="blur" stdDeviation="3"/><feFlood flood-opacity=".161"/><feComposite in2="blur" operator="in"/><feComposite in="SourceGraphic"/></filter></defs><g id="ml1" transform="translate(-6070 4364)"><g filter="url(#Ellipse_18)" transform="matrix(1, 0, 0, 1, 6070, -4364)"><g id="Ellipse_18-2" fill="#fff" stroke="#ff8400" stroke-width="1" data-name="Ellipse 18" transform="translate(9 6)"><circle cx="40" cy="40" r="40" stroke="none"/><circle cx="40" cy="40" r="39.5" fill="none"/></g></g><g id="ml1-2" data-name="ml1" transform="translate(6100 -4337)"><path id="Path_263" fill="#ff8400" d="M0,0V38H38V0ZM35.624,35.624H2.375V11.875H35.624Zm0-26.124H2.375V2.375H35.624Z" data-name="Path 263"/><rect id="Rectangle_5359" width="2" height="2" fill="#ff8400" data-name="Rectangle 5359" transform="translate(4.49 5)"/><rect id="Rectangle_5360" width="3" height="2" fill="#ff8400" data-name="Rectangle 5360" transform="translate(9.49 5)"/><rect id="Rectangle_5361" width="20" height="2" fill="#ff8400" data-name="Rectangle 5361" transform="translate(13.49 5)"/><path id="Path_264" fill="#ff8400" d="M146.375,248.312h.594a4.156,4.156,0,1,0,0-8.312H144v11.875h2.375Zm0-5.937h.594a1.781,1.781,0,0,1,0,3.562h-.594Z" data-name="Path 264" transform="translate(-133.313 -222.188)"/><path id="Path_265" fill="#ff8400" d="M274.375,251.875h2.375v-4.258l2.375-2.375V240H276.75v4.258l-1.187,1.187-1.187-1.187V240H272v5.241l2.375,2.375Z" data-name="Path 265" transform="translate(-251.813 -222.188)"/></g></g></svg>