<svg xmlns="http://www.w3.org/2000/svg" xmlns:xlink="http://www.w3.org/1999/xlink" width="98" height="98" viewBox="0 0 98 98"><defs><filter id="Ellipse_18" width="98" height="98" x="0" y="0" filterUnits="userSpaceOnUse"><feOffset dy="3" input="SourceAlpha"/><feGaussianBlur result="blur" stdDeviation="3"/><feFlood flood-opacity=".161"/><feComposite in2="blur" operator="in"/><feComposite in="SourceGraphic"/></filter></defs><g id="ml2" transform="translate(-6188 4364)"><g filter="url(#Ellipse_18)" transform="matrix(1, 0, 0, 1, 6188, -4364)"><g id="Ellipse_18-2" fill="#fff" stroke="#ff8400" stroke-width="1" data-name="Ellipse 18" transform="translate(9 6)"><circle cx="40" cy="40" r="40" stroke="none"/><circle cx="40" cy="40" r="39.5" fill="none"/></g></g><g id="ml2-2" data-name="ml2" transform="translate(6216 -4339)"><path id="Path_266" fill="#ff8400" d="M36.7,12.261H30.738V6.3a6.306,6.306,0,0,0-6.3-6.3H18.56a6.306,6.306,0,0,0-6.3,6.3v5.963H6.3A6.306,6.306,0,0,0,0,18.56v5.879a6.306,6.306,0,0,0,6.3,6.3h5.963V36.7a6.306,6.306,0,0,0,6.3,6.3h5.879a6.306,6.306,0,0,0,6.3-6.3V30.738H36.7a6.306,6.306,0,0,0,6.3-6.3V18.56A6.306,6.306,0,0,0,36.7,12.261ZM6.3,28.218a3.784,3.784,0,0,1-3.779-3.779V18.56A3.784,3.784,0,0,1,6.3,14.781H21.5a1.26,1.26,0,0,0,0-2.519H14.781V6.3A3.784,3.784,0,0,1,18.56,2.519h5.879A3.784,3.784,0,0,1,28.218,6.3V20.24h-14.7a1.26,1.26,0,0,0-1.26,1.26v6.719Zm34.18-3.779a3.784,3.784,0,0,1-3.78,3.779H21.5a1.26,1.26,0,0,0,0,2.519h6.719V36.7a3.784,3.784,0,0,1-3.779,3.779H18.56A3.784,3.784,0,0,1,14.781,36.7V22.759h14.7a1.26,1.26,0,0,0,1.26-1.26V14.781H36.7a3.784,3.784,0,0,1,3.78,3.779Zm0,0" data-name="Path 266"/><path id="Path_267" fill="#ff8400" d="M208.519,76.26A1.26,1.26,0,1,1,207.26,75,1.26,1.26,0,0,1,208.519,76.26Zm0,0" data-name="Path 267" transform="translate(-188.7 -68.701)"/><path id="Path_268" fill="#ff8400" d="M278.519,408.26a1.26,1.26,0,1,1-1.26-1.26,1.26,1.26,0,0,1,1.26,1.26Zm0,0" data-name="Path 268" transform="translate(-252.821 -372.819)"/></g></g></svg>