<svg xmlns="http://www.w3.org/2000/svg" xmlns:xlink="http://www.w3.org/1999/xlink" width="98" height="98" viewBox="0 0 98 98"><defs><filter id="Ellipse_18" width="98" height="98" x="0" y="0" filterUnits="userSpaceOnUse"><feOffset dy="3" input="SourceAlpha"/><feGaussianBlur result="blur" stdDeviation="3"/><feFlood flood-opacity=".161"/><feComposite in2="blur" operator="in"/><feComposite in="SourceGraphic"/></filter></defs><g id="ml3" transform="translate(-6306 4364)"><g filter="url(#Ellipse_18)" transform="matrix(1, 0, 0, 1, 6306, -4364)"><g id="Ellipse_18-2" fill="#fff" stroke="#ff8400" stroke-width="1" data-name="Ellipse 18" transform="translate(9 6)"><circle cx="40" cy="40" r="40" stroke="none"/><circle cx="40" cy="40" r="39.5" fill="none"/></g></g><g id="ml3-2" data-name="ml3" transform="translate(6329 -4372.315)"><path id="Path_269" fill="#ff8400" d="M54.2,93.485H52.044V63.156h29.8a.768.768,0,0,0,0-1.536H51.276a.768.768,0,0,0-.768.768V94.253a.768.768,0,0,0,.768.768H54.2a.768.768,0,1,0,0-1.536Z" data-name="Path 269" transform="translate(-45.335 -27.201)"/><path id="Path_270" fill="#ff8400" d="M148.989,61.62h-6.4a.768.768,0,1,0,0,1.536h5.632V93.485H114.956a.768.768,0,0,0,0,1.536h34.033a.768.768,0,0,0,.768-.768V62.388A.768.768,0,0,0,148.989,61.62Z" data-name="Path 270" transform="translate(-102.493 -27.201)"/><path id="Path_271" fill="#ff8400" d="M84.085,94.223a.768.768,0,0,0-1.086,0l-1.96,1.96a.768.768,0,0,0,0,1.086L83,99.23a.768.768,0,1,0,1.086-1.086l-1.417-1.417,1.417-1.417a.768.768,0,0,0,0-1.087Z" data-name="Path 271" transform="translate(-72.536 -56.263)"/><path id="Path_272" fill="#ff8400" d="M128.214,94.017a.768.768,0,0,0-.92.577l-.9,3.92a.769.769,0,0,0,1.5.343l.9-3.92a.768.768,0,0,0-.577-.92Z" data-name="Path 272" transform="translate(-113.433 -56.263)"/><path id="Path_273" fill="#ff8400" d="M161.9,99.229a.768.768,0,0,0,1.086,0l1.96-1.96a.768.768,0,0,0,0-1.086l-1.96-1.96a.768.768,0,1,0-1.086,1.086l1.417,1.417L161.9,98.142a.768.768,0,0,0,0,1.087Z" data-name="Path 273" transform="translate(-145.12 -56.262)"/><path id="Path_274" fill="#ff8400" d="M81.581,176.294h4.138a.768.768,0,1,0,0-1.536H81.581a.768.768,0,0,0,0,1.536Z" data-name="Path 274" transform="translate(-72.536 -128.752)"/><path id="Path_275" fill="#ff8400" d="M151.524,175.526a.768.768,0,0,0,.768.768h18.829a.768.768,0,1,0,0-1.536H152.292a.768.768,0,0,0-.768.768Z" data-name="Path 275" transform="translate(-136.006 -128.752)"/><path id="Path_276" fill="#ff8400" d="M366.447,176.294h1.035a.768.768,0,1,0,0-1.536h-1.035a.768.768,0,0,0,0,1.536Z" data-name="Path 276" transform="translate(-328.228 -128.752)"/><path id="Path_277" fill="#ff8400" d="M111.886,215.165a.768.768,0,0,0,0,1.536h3.1a.768.768,0,1,0,0-1.536Z" data-name="Path 277" transform="translate(-99.738 -165.021)"/><path id="Path_278" fill="#ff8400" d="M186.152,215.165H172.5a.768.768,0,1,0,0,1.536h13.656a.768.768,0,1,0,0-1.536Z" data-name="Path 278" transform="translate(-154.14 -165.021)"/><path id="Path_279" fill="#ff8400" d="M338.211,215.165h-2.069a.768.768,0,0,0,0,1.536h2.069a.768.768,0,1,0,0-1.536Z" data-name="Path 279" transform="translate(-301.026 -165.021)"/><path id="Path_280" fill="#ff8400" d="M389.754,215.165h-3.1a.768.768,0,0,0,0,1.536h3.1a.768.768,0,1,0,0-1.536Z" data-name="Path 280" transform="translate(-346.362 -165.021)"/><path id="Path_281" fill="#ff8400" d="M115.758,256.339a.768.768,0,0,0-.768-.768h-3.1a.768.768,0,0,0,0,1.536h3.1a.768.768,0,0,0,.768-.768Z" data-name="Path 281" transform="translate(-99.738 -201.289)"/><path id="Path_282" fill="#ff8400" d="M186.152,255.571H172.5a.768.768,0,0,0,0,1.536h13.656a.768.768,0,1,0,0-1.536Z" data-name="Path 282" transform="translate(-154.14 -201.289)"/><path id="Path_283" fill="#ff8400" d="M338.211,255.571h-2.069a.768.768,0,0,0,0,1.536h2.069a.768.768,0,1,0,0-1.536Z" data-name="Path 283" transform="translate(-301.026 -201.289)"/><path id="Path_284" fill="#ff8400" d="M389.754,255.571h-3.1a.768.768,0,0,0,0,1.536h3.1a.768.768,0,1,0,0-1.536Z" data-name="Path 284" transform="translate(-346.362 -201.289)"/><path id="Path_285" fill="#ff8400" d="M81.581,297.514h4.138a.768.768,0,0,0,0-1.536H81.581a.768.768,0,0,0,0,1.536Z" data-name="Path 285" transform="translate(-72.536 -237.557)"/><path id="Path_286" fill="#ff8400" d="M171.889,296.746a.768.768,0,0,0-.768-.768H152.292a.768.768,0,1,0,0,1.536h18.829A.768.768,0,0,0,171.889,296.746Z" data-name="Path 286" transform="translate(-136.006 -237.557)"/><path id="Path_287" fill="#ff8400" d="M367.481,297.514a.768.768,0,0,0,0-1.536h-1.035a.768.768,0,1,0,0,1.536Z" data-name="Path 287" transform="translate(-328.227 -237.557)"/><path id="Path_288" fill="#ff8400" d="M114.99,337.92a.768.768,0,0,0,0-1.536h-3.1a.768.768,0,1,0,0,1.536Z" data-name="Path 288" transform="translate(-99.738 -273.825)"/><path id="Path_289" fill="#ff8400" d="M172.5,336.384a.768.768,0,0,0,0,1.536h13.656a.768.768,0,0,0,0-1.536Z" data-name="Path 289" transform="translate(-154.14 -273.825)"/><path id="Path_290" fill="#ff8400" d="M336.142,337.92h2.069a.768.768,0,0,0,0-1.536h-2.069a.768.768,0,0,0,0,1.536Z" data-name="Path 290" transform="translate(-301.026 -273.825)"/><path id="Path_291" fill="#ff8400" d="M386.65,337.92h3.1a.768.768,0,0,0,0-1.536h-3.1a.768.768,0,0,0,0,1.536Z" data-name="Path 291" transform="translate(-346.362 -273.825)"/><path id="Path_292" fill="#ff8400" d="M51.669,69.387h-1.3V34.131a2.82,2.82,0,0,0-2.816-2.816H4.886A2.82,2.82,0,0,0,2.07,34.131V69.387H.768A.768.768,0,0,0,0,70.155v2.276a4.912,4.912,0,0,0,4.906,4.906H33.46a.768.768,0,1,0,0-1.536H4.906a3.374,3.374,0,0,1-3.37-3.37V70.923H50.9v1.508a3.374,3.374,0,0,1-3.37,3.37H37.014a.768.768,0,1,0,0,1.536H47.531a4.912,4.912,0,0,0,4.906-4.906V70.155A.768.768,0,0,0,51.669,69.387ZM3.605,34.131a1.282,1.282,0,0,1,1.28-1.28H47.551a1.282,1.282,0,0,1,1.28,1.28V69.387H3.605Z" data-name="Path 292"/></g></g></svg>