<svg xmlns="http://www.w3.org/2000/svg" xmlns:xlink="http://www.w3.org/1999/xlink" width="98" height="98" viewBox="0 0 98 98"><defs><filter id="Ellipse_18" width="98" height="98" x="0" y="0" filterUnits="userSpaceOnUse"><feOffset dy="3" input="SourceAlpha"/><feGaussianBlur result="blur" stdDeviation="3"/><feFlood flood-opacity=".161"/><feComposite in2="blur" operator="in"/><feComposite in="SourceGraphic"/></filter></defs><g id="ml4" transform="translate(-6424 4354)"><g filter="url(#Ellipse_18)" transform="matrix(1, 0, 0, 1, 6424, -4354)"><g id="Ellipse_18-2" fill="#fff" stroke="#ff8400" stroke-width="1" data-name="Ellipse 18" transform="translate(9 6)"><circle cx="40" cy="40" r="40" stroke="none"/><circle cx="40" cy="40" r="39.5" fill="none"/></g></g><g id="ml4-2" data-name="ml4" transform="translate(6453 -4328.001)"><g id="Group_10665" data-name="Group 10665" transform="translate(2.78 2.766)"><path id="Path_293" fill="#ff8400" d="M46.693,32.106A14.511,14.511,0,1,0,61.2,46.616a14.511,14.511,0,0,0-14.507-14.51Zm0,1.382a13.115,13.115,0,0,1,10.722,5.577l-1.728,1.728a2.727,2.727,0,0,0-1.393-.394,2.764,2.764,0,0,0-2.764,2.764,2.727,2.727,0,0,0,.392,1.4L47.4,49.082a2.68,2.68,0,0,0-2.79,0l-3.143-3.143a2.727,2.727,0,0,0,.392-1.4,2.759,2.759,0,0,0-5.43-.691H33.863A13.148,13.148,0,0,1,46.693,33.488Zm8.983,9.674a1.382,1.382,0,1,1-1.382-1.382,1.382,1.382,0,0,1,1.382,1.382Zm-8.292,8.292a1.382,1.382,0,1,1-.405-.978A1.382,1.382,0,0,1,47.384,51.454Zm-6.91-6.91a1.382,1.382,0,1,1-1.382-1.382,1.382,1.382,0,0,1,1.382,1.382ZM53.073,58.1A13.127,13.127,0,0,1,33.638,45.235h2.788a2.764,2.764,0,0,0,2.666,2.073,2.727,2.727,0,0,0,1.4-.392l3.143,3.143a2.727,2.727,0,0,0-.392,1.4,2.764,2.764,0,0,0,5.528,0,2.727,2.727,0,0,0-.392-1.4L52.9,45.534a2.727,2.727,0,0,0,1.4.392,2.764,2.764,0,0,0,2.764-2.764,2.727,2.727,0,0,0-.392-1.4l1.506-1.506A13.118,13.118,0,0,1,53.073,58.1Z" data-name="Path 293" transform="translate(-32.182 -32.106)"/></g><g id="Group_10666" data-name="Group 10666"><path id="Path_294" fill="#ff8400" d="M34.567,6.993A2.764,2.764,0,0,0,37.233,4.92h4.244V3.538H37.233a2.758,2.758,0,0,0-5.43.691,2.727,2.727,0,0,0,.392,1.4L30.98,6.838a17.275,17.275,0,1,0-4.313,25.019l2.085,2.085.977.977,5.563,5.563a3.623,3.623,0,1,0,5.123-5.123L34.853,29.8l-.977-.977L31.79,26.734a17.218,17.218,0,0,0,0-18.751L33.172,6.6a2.728,2.728,0,0,0,1.4.393Zm0-4.146a1.382,1.382,0,1,1-1.382,1.382A1.382,1.382,0,0,1,34.567,2.847Zm4.872,33.489a2.241,2.241,0,1,1-3.133,3.205l-.036-.036-5.563-5.563,3.169-3.169ZM32.9,29.8l-3.17,3.165-1.913-1.913c.1-.075.189-.157.285-.234s.207-.169.31-.255q.226-.191.447-.388c.075-.069.147-.138.221-.207q.425-.4.823-.823c.069-.074.138-.146.207-.221.132-.146.261-.3.388-.447q.13-.153.255-.31c.076-.1.158-.187.233-.284Zm-2.68-3.21c-.218.3-.442.6-.679.889-.069.084-.143.164-.214.247q-.317.369-.655.716-.147.152-.3.3-.346.338-.716.655c-.082.069-.163.144-.247.214-.287.237-.585.462-.889.679a15.918,15.918,0,1,1,3.7-3.7Z" data-name="Path 294" transform="translate(0 -0.08)"/></g></g></g></svg>