<svg xmlns="http://www.w3.org/2000/svg" xmlns:xlink="http://www.w3.org/1999/xlink" width="98" height="98" viewBox="0 0 98 98"><defs><filter id="Ellipse_18" width="98" height="98" x="0" y="0" filterUnits="userSpaceOnUse"><feOffset dy="3" input="SourceAlpha"/><feGaussianBlur result="blur" stdDeviation="3"/><feFlood flood-opacity=".161"/><feComposite in2="blur" operator="in"/><feComposite in="SourceGraphic"/></filter></defs><g id="ml5" transform="translate(-6424 4246)"><g filter="url(#Ellipse_18)" transform="matrix(1, 0, 0, 1, 6424, -4246)"><g id="Ellipse_18-2" fill="#fff" stroke="#ff8400" stroke-width="1" data-name="Ellipse 18" transform="translate(9 6)"><circle cx="40" cy="40" r="40" stroke="none"/><circle cx="40" cy="40" r="39.5" fill="none"/></g></g><g id="ml5-2" data-name="ml5" transform="translate(6451.009 -4222)"><path id="Path_295" fill="#ff8400" d="M15.792,19.617H9.517a.682.682,0,0,0-.483.2L6.5,22.35H5.974a2.05,2.05,0,1,0,0,1.367h.809a.682.682,0,0,0,.483-.2L9.8,20.983h5.993a2.029,2.029,0,0,0,3.274.847l2.785,1.549a2.025,2.025,0,0,0-.034.337,2.05,2.05,0,1,0,4.1,0,2.025,2.025,0,0,0-.034-.337l2.785-1.549A2.043,2.043,0,1,0,30.7,18.375V15.39a2.044,2.044,0,1,0-2.033-3.455l-2.785-1.549a2.009,2.009,0,0,0,.034-.336,2.05,2.05,0,0,0-4.1,0,2.025,2.025,0,0,0,.034.337l-2.785,1.549a2.029,2.029,0,0,0-3.274.847H9.8L7.266,10.25a.682.682,0,0,0-.483-.2H5.974a2.05,2.05,0,1,0,0,1.367H6.5L9.033,13.95a.682.682,0,0,0,.483.2h6.276a2.048,2.048,0,0,0,1.241,1.241V16.2H5.974a2.05,2.05,0,1,0,0,1.367H17.033v.809a2.048,2.048,0,0,0-1.241,1.241ZM4.05,23.716a.683.683,0,1,1,.683-.683.683.683,0,0,1-.683.683Zm0-12.3a.683.683,0,1,1,.683-.683.683.683,0,0,1-.683.683Zm0,6.15a.683.683,0,1,1,.683-.683.683.683,0,0,1-.683.683Zm13.667,3.417A.683.683,0,1,1,18.4,20.3a.683.683,0,0,1-.683.683ZM19.066,15l2.785,1.549a1.678,1.678,0,0,0,0,.674l-2.785,1.549a2.054,2.054,0,0,0-.666-.394V15.39a2.021,2.021,0,0,0,.666-.39Zm9.6,3.772L25.882,17.22a1.678,1.678,0,0,0,0-.674L28.667,15a2.054,2.054,0,0,0,.666.394v2.985a2.021,2.021,0,0,0-.666.39Zm-8.934,1.194,2.785-1.549a2.054,2.054,0,0,0,.666.394V21.8a2.035,2.035,0,0,0-.666.394l-2.785-1.549a1.681,1.681,0,0,0,0-.674ZM23.866,16.2a.683.683,0,1,1-.683.683A.683.683,0,0,1,23.866,16.2Zm.683,2.608a2.035,2.035,0,0,0,.666-.394L28,19.963a1.678,1.678,0,0,0,0,.674l-2.785,1.549a2.054,2.054,0,0,0-.666-.394ZM28,13.8l-2.785,1.549a2.054,2.054,0,0,0-.666-.394V11.974a2.035,2.035,0,0,0,.666-.394L28,13.129a1.681,1.681,0,0,0,0,.674Zm-4.817,1.156a2.035,2.035,0,0,0-.666.394L19.732,13.8a1.678,1.678,0,0,0,0-.674l2.785-1.549a2.054,2.054,0,0,0,.666.394Zm.683,9.441a.679.679,0,1,1,.484-.2.683.683,0,0,1-.484.2Zm6.15-3.417a.683.683,0,1,1,.684-.68.683.683,0,0,1-.684.68Zm0-8.2a.683.683,0,1,1-.683.683.683.683,0,0,1,.683-.683Zm-6.15-3.417a.683.683,0,1,1-.683.683.683.683,0,0,1,.683-.683Zm-6.15,3.417a.683.683,0,1,1-.683.683.683.683,0,0,1,.683-.683Z" data-name="Path 295" transform="translate(0 -1.9)"/><path id="Path_296" fill="#ff8400" d="M19.753,43H30.686a.684.684,0,0,0,.683-.683V37.533h8.883a.684.684,0,0,0,.683-.683v-8.2h4.783a.684.684,0,0,0,.653-.888l-3.407-10.9a15.335,15.335,0,0,0-28.3-7.714l1.151.737A13.974,13.974,0,0,1,41.6,17.067a.654.654,0,0,0,.1.326l3.091,9.89H40.252a.684.684,0,0,0-.683.683V30.7h-2.05a2.052,2.052,0,0,1-2.05-2.05H34.1a3.421,3.421,0,0,0,3.417,3.417h2.05v4.1H30.686A.684.684,0,0,0,30,36.85v4.783H20.436v-.661a31.6,31.6,0,0,0-4.807-16.349,13.882,13.882,0,0,1-1.563-3.665l-1.322.35a15.25,15.25,0,0,0,1.717,4.026,30.239,30.239,0,0,1,4.608,15.638v1.344a.684.684,0,0,0,.683.683Z" data-name="Path 296" transform="translate(-3.403)"/></g></g></svg>