<svg xmlns="http://www.w3.org/2000/svg" xmlns:xlink="http://www.w3.org/1999/xlink" width="98" height="98" viewBox="0 0 98 98"><defs><filter id="Ellipse_18" width="98" height="98" x="0" y="0" filterUnits="userSpaceOnUse"><feOffset dy="3" input="SourceAlpha"/><feGaussianBlur result="blur" stdDeviation="3"/><feFlood flood-opacity=".161"/><feComposite in2="blur" operator="in"/><feComposite in="SourceGraphic"/></filter></defs><g id="ml6" transform="translate(-6306 4246)"><g filter="url(#Ellipse_18)" transform="matrix(1, 0, 0, 1, 6306, -4246)"><g id="Ellipse_18-2" fill="#fff" stroke="#ff8400" stroke-width="1" data-name="Ellipse 18" transform="translate(9 6)"><circle cx="40" cy="40" r="40" stroke="none"/><circle cx="40" cy="40" r="39.5" fill="none"/></g></g><g id="ml6-2" data-name="ml6" transform="translate(6332 -4222.995)"><path id="Path_297" fill="#ff8400" d="M35,30v1.4a3.507,3.507,0,0,1,3.5,3.5h1.4A4.91,4.91,0,0,0,35,30Z" data-name="Path 297" transform="translate(-9.879 -8.382)"/><path id="Path_298" fill="#ff8400" d="M26,29v1.4a2.1,2.1,0,0,1,2.1,2.1h1.4A3.507,3.507,0,0,0,26,29Z" data-name="Path 298" transform="translate(-7.184 -8.082)"/><path id="Path_299" fill="#ff8400" d="M20,37.5h1.4a2.1,2.1,0,0,1,2.1-2.1V34A3.507,3.507,0,0,0,20,37.5Z" data-name="Path 299" transform="translate(-5.388 -9.579)"/><path id="Path_300" fill="#ff8400" d="M39.1,24.46a5.5,5.5,0,0,0-.661-2.028V19.106l3.3-3.3a.7.7,0,0,0,.205-.5v-2.9a2.8,2.8,0,1,0-1.4,0v2.612l-2.1,2.1V13.911a.7.7,0,0,0-.205-.5l-1.9-1.9V7.506a2.8,2.8,0,1,0-1.4,0v4.013l-1.9,1.9a.7.7,0,0,0-.205.5V19.58a5.624,5.624,0,0,0-.9.18H31.92a6.338,6.338,0,0,0-5.388-3.041V15.6l2.6-2.6a.7.7,0,0,0,.2-.5V8.9a2.8,2.8,0,1,0-1.4,0v3.32l-2.6,2.6a.7.7,0,0,0-.2.5v1.57a6.319,6.319,0,0,0-2.1.889,6.32,6.32,0,0,0-2.1-.889V13.111a2.8,2.8,0,1,0-1.4,0v3.6a6.249,6.249,0,0,0-2.8.679V12.51a.7.7,0,0,0-.2-.5l-2.6-2.6v-1.9a2.8,2.8,0,1,0-1.4,0V12.22l-3.5,3.5-3.5-3.5V10.308a2.8,2.8,0,1,0-1.4,0v2.2a.7.7,0,0,0,.2.5l.906.906-2.332,2.3a.7.7,0,0,0-.2.5V27.326a5.595,5.595,0,0,0,4.9,8.306H25.822v.7a3.507,3.507,0,0,0,3.5,3.5h1.4a4.208,4.208,0,0,0,4.2,4.2.7.7,0,0,0,.7-.7V39.764a3.509,3.509,0,0,0,2.8-3.432v-.7A5.605,5.605,0,0,0,39.1,24.46Zm.74-14.753a.58.58,0,1,1-.005,0ZM27.223,6.2a1.4,1.4,0,1,1,1.4,1.4,1.4,1.4,0,0,1-1.4-1.4Zm-8.408,4.2a1.608,1.608,0,1,1,0,.008ZM34.23,4.8a1.4,1.4,0,1,1,1.4,1.4A1.4,1.4,0,0,1,34.23,4.8Zm1.4,8,1.4,1.4v6.557a5.569,5.569,0,0,0-2.8-1.189V14.2Zm-23.822-8a1.4,1.4,0,1,1,1.4,1.4,1.4,1.4,0,0,1-1.4-1.4Zm1.9,8.2a.7.7,0,0,0,.205-.5V11.4l1.4,1.4v5.545a6.3,6.3,0,0,0-1.184,1.41,5.573,5.573,0,0,0-1.619-.238,5.638,5.638,0,0,0-.7.049v-.75a.7.7,0,0,0-.2-.5L10,16.714ZM3.4,7.605a1.4,1.4,0,1,1,1.4,1.4,1.4,1.4,0,0,1-1.4-1.4Zm2.8,7.3,4.2,4.2v.823A5.618,5.618,0,0,0,6.944,24.46,5.571,5.571,0,0,0,4.1,25.66V17ZM34.23,42.549a2.807,2.807,0,0,1-2.1-2.714h2.1Zm2.8-6.217a2.1,2.1,0,0,1-2.1,2.1h-5.6a2.1,2.1,0,0,1-2.1-2.1v-.7h9.809Zm1.4-2.1H34.182a5.578,5.578,0,0,0-1.335-2.975,2.1,2.1,0,0,1,2.084-1.93v-1.4a3.5,3.5,0,0,0-3.276,2.3,5.566,5.566,0,0,0-3.03-.9v1.4a4.208,4.208,0,0,1,4.141,3.5H22.971a5.578,5.578,0,0,0-1.335-2.975,2.8,2.8,0,0,1,2.785-2.63v-1.4A4.21,4.21,0,0,0,20.4,30.2a5.564,5.564,0,0,0-2.988-.871v1.4a4.208,4.208,0,0,1,4.141,3.5H7.605a4.208,4.208,0,0,1-4.2-4.2A4.254,4.254,0,0,1,9,26.074a6.45,6.45,0,0,1,1.582.978l.991-.991A5.548,5.548,0,0,0,8.36,24.485a6.384,6.384,0,0,1,.516-1.466,4.194,4.194,0,0,1,6.607-.876l.991-.991a5.506,5.506,0,0,0-1.054-.818,4.923,4.923,0,0,1,4.1-2.225,4.836,4.836,0,0,1,2.387.623,6.221,6.221,0,0,0-.588.725l1.157.791a4.895,4.895,0,0,1,8.146.083,5.563,5.563,0,0,0-1.053.82l.991.991a4.217,4.217,0,0,1,7.177,2.973.7.7,0,0,0,.7.7,4.2,4.2,0,0,1,0,8.408Z" data-name="Path 300"/><path id="Path_301" fill="#ff8400" d="M35,30v1.4a3.507,3.507,0,0,1,3.5,3.5h1.4A4.91,4.91,0,0,0,35,30Z" data-name="Path 301" transform="translate(-9.879 -8.382)"/><path id="Path_302" fill="#ff8400" d="M26,29v1.4a2.1,2.1,0,0,1,2.1,2.1h1.4A3.507,3.507,0,0,0,26,29Z" data-name="Path 302" transform="translate(-7.184 -8.082)"/><path id="Path_303" fill="#ff8400" d="M20,37.5h1.4a2.1,2.1,0,0,1,2.1-2.1V34A3.507,3.507,0,0,0,20,37.5Z" data-name="Path 303" transform="translate(-5.388 -9.579)"/><path id="Path_304" fill="#ff8400" d="M12,41h1.4v1.4H12Z" data-name="Path 304" transform="translate(-2.993 -11.675)"/><path id="Path_305" fill="#ff8400" d="M16,41h1.4v1.4H16Z" data-name="Path 305" transform="translate(-4.191 -11.675)"/><path id="Path_306" fill="#ff8400" d="M20,41h1.4v1.4H20Z" data-name="Path 306" transform="translate(-5.388 -11.675)"/><path id="Path_307" fill="#ff8400" d="M12,41h1.4v1.4H12Z" data-name="Path 307" transform="translate(-2.993 -11.675)"/><path id="Path_308" fill="#ff8400" d="M16,41h1.4v1.4H16Z" data-name="Path 308" transform="translate(-4.191 -11.675)"/><path id="Path_309" fill="#ff8400" d="M20,41h1.4v1.4H20Z" data-name="Path 309" transform="translate(-5.388 -11.675)"/></g></g></svg>