<svg xmlns="http://www.w3.org/2000/svg" xmlns:xlink="http://www.w3.org/1999/xlink" width="98" height="98" viewBox="0 0 98 98"><defs><filter id="Ellipse_18" width="98" height="98" x="0" y="0" filterUnits="userSpaceOnUse"><feOffset dy="3" input="SourceAlpha"/><feGaussianBlur result="blur" stdDeviation="3"/><feFlood flood-opacity=".161"/><feComposite in2="blur" operator="in"/><feComposite in="SourceGraphic"/></filter></defs><g id="ml7" transform="translate(-6188 4246)"><g filter="url(#Ellipse_18)" transform="matrix(1, 0, 0, 1, 6188, -4246)"><g id="Ellipse_18-2" fill="#fff" stroke="#ff8400" stroke-width="1" data-name="Ellipse 18" transform="translate(9 6)"><circle cx="40" cy="40" r="40" stroke="none"/><circle cx="40" cy="40" r="39.5" fill="none"/></g></g><g id="ml7-2" data-name="ml7" transform="translate(6213 -4223.293)"><path id="Path_310" fill="#ff8400" d="M45.176,43.687H43.687v1.489H40.71V43.687H39.221v1.489H36.243V43.687H34.754v1.489H31.777V43.687H30.288v1.489H27.31V43.687H25.821v1.489H22.844V43.687H21.355v1.489H18.377V43.687H16.888v1.489H13.911V43.687H12.422v1.489H9.444V43.687H7.955v1.489H3.489V40.71H4.978V39.221H3.489V36.243H4.978V34.754H3.489V31.777H4.978V30.288H3.489V27.31H4.978V25.821H3.489V22.844H4.978V21.355H3.489V18.377H4.978V16.888H3.489V13.911H4.978V12.422H3.489V9.444H4.978V7.955H3.489V4.978H4.978V3.489H3.489V2H2V45.921a.744.744,0,0,0,.744.744H46.665V45.176H45.176Z" data-name="Path 310" transform="translate(0 -0.181)"/><path id="Path_311" fill="#ff8400" d="M10,43.233A2.233,2.233,0,1,0,12.233,41,2.233,2.233,0,0,0,10,43.233Zm2.978,0a.744.744,0,1,1-.744-.744.744.744,0,0,1,.744.744Z" data-name="Path 311" transform="translate(-2.045 -10.148)"/><path id="Path_312" fill="#ff8400" d="M17.467,32.233a2.233,2.233,0,1,0-2.233,2.233A2.233,2.233,0,0,0,17.467,32.233Zm-2.978,0a.744.744,0,1,1,.744.744.744.744,0,0,1-.744-.744Z" data-name="Path 312" transform="translate(-2.811 -7.337)"/><path id="Path_313" fill="#ff8400" d="M56.467,14.233a2.233,2.233,0,1,0-2.233,2.233,2.233,2.233,0,0,0,2.233-2.233Zm-2.978,0a.744.744,0,1,1,.744.744.744.744,0,0,1-.744-.744Z" data-name="Path 313" transform="translate(-12.779 -2.737)"/><path id="Path_314" fill="#ff8400" d="M22,24.233A2.233,2.233,0,1,0,24.233,22,2.233,2.233,0,0,0,22,24.233Zm2.978,0a.744.744,0,1,1-.744-.744.744.744,0,0,1,.744.744Z" data-name="Path 314" transform="translate(-5.112 -5.292)"/><path id="Path_315" fill="#ff8400" d="M35,41.233A2.233,2.233,0,1,0,37.233,39,2.233,2.233,0,0,0,35,41.233Zm2.978,0a.744.744,0,1,1-.744-.744A.744.744,0,0,1,37.978,41.233Z" data-name="Path 315" transform="translate(-8.434 -9.637)"/><path id="Path_316" fill="#ff8400" d="M42.233,30.467A2.233,2.233,0,1,0,40,28.233a2.233,2.233,0,0,0,2.233,2.234Zm0-2.978a.744.744,0,1,1-.744.744.744.744,0,0,1,.744-.744Z" data-name="Path 316" transform="translate(-9.712 -6.315)"/><path id="Path_317" fill="#ff8400" d="M38,11.233A2.233,2.233,0,1,0,40.233,9,2.233,2.233,0,0,0,38,11.233Zm2.978,0a.744.744,0,1,1-.744-.744.744.744,0,0,1,.744.744Z" data-name="Path 317" transform="translate(-9.201 -1.97)"/><path id="Path_318" fill="#ff8400" d="M47.492,1.293l-.75.75a2.2,2.2,0,0,0-.957-.224,2.236,2.236,0,0,0-2.233,2.233,2.2,2.2,0,0,0,.224.957L42,6.782a2.231,2.231,0,1,0-2.174,1.737,2.178,2.178,0,0,0,.5-.06L37.064,11.72a2.207,2.207,0,0,0-.957-.223,2.236,2.236,0,0,0-2.233,2.233,2.2,2.2,0,0,0,.224.957l-2.486,2.486a2.228,2.228,0,1,0-2.485,2.485l-2.486,2.486a2.2,2.2,0,0,0-.957-.224,2.236,2.236,0,0,0-2.233,2.233,2.207,2.207,0,0,0,.224.957l-2.806,2.8a2.311,2.311,0,0,0-.4-.039,2.21,2.21,0,0,0-2.193,2.63l-6.527,6.527a2.2,2.2,0,0,0-.957-.224A2.236,2.236,0,0,0,8.564,39.04a2.2,2.2,0,0,0,.224.96l-1.5,1.492,1.053,1.053,1.494-1.5a2.2,2.2,0,0,0,.957.224A2.236,2.236,0,0,0,13.03,39.04a2.2,2.2,0,0,0-.224-.957l6.258-6.258A2.221,2.221,0,0,0,22.192,28.7l2.536-2.536a2.213,2.213,0,0,0,.957.224,2.236,2.236,0,0,0,2.233-2.233,2.2,2.2,0,0,0-.224-.957L35.15,15.74a2.212,2.212,0,0,0,.957.223A2.236,2.236,0,0,0,38.34,13.73a2.2,2.2,0,0,0-.224-.957l6.711-6.711a2.212,2.212,0,0,0,.957.223,2.236,2.236,0,0,0,2.233-2.233,2.2,2.2,0,0,0-.224-.957l.75-.75ZM39.085,6.286a.744.744,0,1,1,.744.744.744.744,0,0,1-.744-.744ZM28.663,17.452a.744.744,0,1,1,.744.744A.744.744,0,0,1,28.663,17.452ZM10.8,39.785a.744.744,0,1,1,.744-.744.744.744,0,0,1-.744.744Zm9.677-8.933A.745.745,0,1,1,21,30.635a.744.744,0,0,1-.525.217ZM25.685,24.9a.744.744,0,1,1,.744-.744.744.744,0,0,1-.744.744ZM36.107,14.474a.744.744,0,1,1,.744-.744.744.744,0,0,1-.744.744ZM45.785,4.8a.744.744,0,1,1,.744-.744.744.744,0,0,1-.744.744Z" data-name="Path 318" transform="translate(-1.353)"/></g></g></svg>