<svg xmlns="http://www.w3.org/2000/svg" xmlns:xlink="http://www.w3.org/1999/xlink" width="98" height="98" viewBox="0 0 98 98"><defs><filter id="Ellipse_19" width="98" height="98" x="0" y="0" filterUnits="userSpaceOnUse"><feOffset dy="3" input="SourceAlpha"/><feGaussianBlur result="blur" stdDeviation="3"/><feFlood flood-opacity=".161"/><feComposite in2="blur" operator="in"/><feComposite in="SourceGraphic"/></filter></defs><g id="ml8" transform="translate(-2726 3640)"><g id="ml8-2" data-name="ml8"><g filter="url(#Ellipse_19)" transform="translate(-3462 1037) matrix(1, 0, 0, 1, 6188, -4677)"><g id="Ellipse_19-2" fill="#fff" stroke="#ff8400" stroke-width="1" data-name="Ellipse 19" transform="translate(9 6)"><circle cx="40" cy="40" r="40" stroke="none"/><circle cx="40" cy="40" r="39.5" fill="none"/></g></g></g><g id="ml8-3" data-name="ml8" transform="translate(2751 -3617)"><path id="Path_422" fill="#ff8400" d="M31.166,33a2.166,2.166,0,1,0,2.166,2.166A2.166,2.166,0,0,0,31.166,33Zm0,2.888a.722.722,0,1,1,.722-.722A.722.722,0,0,1,31.166,35.888Z" data-name="Path 422" transform="translate(-7.507 -8.898)"/><path id="Path_423" fill="#ff8400" d="M15,28V39.546a5.782,5.782,0,0,0,5.776,5.776h5.776v2.166H21.5v1.444H33.049V47.488H28V45.322h5.776a5.782,5.782,0,0,0,5.776-5.776V28H38.1v1.444H36.659V18.61A3.614,3.614,0,0,0,33.049,15H21.5a3.614,3.614,0,0,0-3.61,3.61V29.439H16.444V28ZM32.327,39.546V40.99H30.883V39.546H29.439V40.99H28V39.546H26.551V40.99H25.107V39.546H23.663V40.99H22.22V39.546H20.776v1.311a2.163,2.163,0,0,1-1.444-2.033V38.1H35.215v.722a2.163,2.163,0,0,1-1.444,2.033V39.546Zm2.888-5.776H32.327v1.444h2.888v1.444H19.332V35.215H22.22V33.771H19.332V32.327h4.332V30.883H19.332V29.439h4.332V28H19.332V26.551H35.215V28H30.883v1.444h4.332v1.444H30.883v1.444h4.332Zm0-8.663H19.332V23.663H35.215Zm-14.439-8.53v4.2H22.22V16.444h1.444v4.332h1.444V16.444h1.444v4.332H28V16.444h1.444v4.332h1.444V16.444h1.444v4.332h1.444v-4.2a2.163,2.163,0,0,1,1.444,2.033v3.61H19.332V18.61A2.163,2.163,0,0,1,20.776,16.577ZM17.888,30.883v7.941a3.614,3.614,0,0,0,3.61,3.61H33.049a3.614,3.614,0,0,0,3.61-3.61V30.883H38.1v8.663a4.336,4.336,0,0,1-4.332,4.332h-13a4.336,4.336,0,0,1-4.332-4.332V30.883Z" data-name="Path 423" transform="translate(-3.615 -3.893)"/><path id="Path_424" fill="#ff8400" d="M41.932,5.078C41.38,6.55,40.754,8.22,39.9,8.22s-1.481-1.67-2.033-3.142C37.114,3.073,36.336,1,34.481,1S31.85,3.073,31.1,5.078C30.547,6.55,29.921,8.22,29.067,8.22s-1.479-1.67-2.031-3.142C26.284,3.073,25.506,1,23.651,1S21.02,3.073,20.268,5.078C19.717,6.55,19.091,8.22,18.237,8.22s-1.479-1.669-2.03-3.141C15.456,3.073,14.679,1,12.825,1S10.194,3.073,9.443,5.078C8.891,6.55,8.265,8.22,7.412,8.22S5.934,6.55,5.382,5.078C4.631,3.073,3.853,1,2,1V2.444c.853,0,1.479,1.669,2.03,3.141.752,2,1.529,4.078,3.382,4.078s2.631-2.073,3.382-4.078c.552-1.472,1.178-3.141,2.03-3.141s1.479,1.669,2.03,3.141c.752,2,1.529,4.078,3.382,4.078S20.869,7.59,21.62,5.586c.552-1.473,1.178-3.142,2.031-3.142s1.48,1.669,2.032,3.142c.753,2,1.53,4.078,3.385,4.078S31.7,7.59,32.451,5.585c.552-1.472,1.178-3.141,2.03-3.141s1.48,1.669,2.032,3.141c.753,2,1.531,4.078,3.386,4.078s2.632-2.073,3.385-4.078c.552-1.473,1.178-3.142,2.033-3.142V1C43.462,1,42.685,3.073,41.932,5.078Z" data-name="Path 424"/><path id="Path_425" fill="#ff8400" d="M31,41h1.444v1.444H31Z" data-name="Path 425" transform="translate(-8.063 -11.122)"/><path id="Path_426" fill="#ff8400" d="M27,41h1.444v1.444H27Z" data-name="Path 426" transform="translate(-6.951 -11.122)"/><path id="Path_427" fill="#ff8400" d="M35,41h1.444v1.444H35Z" data-name="Path 427" transform="translate(-9.176 -11.122)"/></g></g></svg>